<mxfile host="app.diagrams.net" modified="2021-09-19T23:28:35.665Z" agent="5.0 (Macintosh; Intel Mac OS X 10_15_7) AppleWebKit/537.36 (KHTML, like Gecko) Chrome/92.0.4515.107 Safari/537.36" etag="X-FojaVxhcR8JIrkefYb" version="15.2.7" type="github">
  <diagram id="WyFfeFQL1By48-2bZupr" name="Page-1">
    <mxGraphModel dx="2366" dy="1262" grid="1" gridSize="10" guides="1" tooltips="1" connect="1" arrows="1" fold="1" page="1" pageScale="1" pageWidth="827" pageHeight="1169" math="0" shadow="0">
      <root>
        <mxCell id="0" />
        <mxCell id="1" parent="0" />
        <mxCell id="rBdYq_oIjn1MwsfL1_K1-6" style="edgeStyle=orthogonalEdgeStyle;rounded=0;orthogonalLoop=1;jettySize=auto;html=1;" parent="1" source="rBdYq_oIjn1MwsfL1_K1-5" target="rBdYq_oIjn1MwsfL1_K1-7" edge="1">
          <mxGeometry relative="1" as="geometry">
            <mxPoint x="160" y="98.5" as="targetPoint" />
          </mxGeometry>
        </mxCell>
        <mxCell id="rBdYq_oIjn1MwsfL1_K1-5" value="" style="pointerEvents=1;shadow=0;dashed=0;html=1;strokeColor=none;labelPosition=center;verticalLabelPosition=bottom;verticalAlign=top;align=center;fillColor=#505050;shape=mxgraph.mscae.intune.user_group" parent="1" vertex="1">
          <mxGeometry x="60" y="191.5" width="50" height="37" as="geometry" />
        </mxCell>
        <mxCell id="rBdYq_oIjn1MwsfL1_K1-22" style="edgeStyle=orthogonalEdgeStyle;rounded=0;orthogonalLoop=1;jettySize=auto;html=1;entryX=-0.01;entryY=0.455;entryDx=0;entryDy=0;entryPerimeter=0;" parent="1" source="rBdYq_oIjn1MwsfL1_K1-7" target="rBdYq_oIjn1MwsfL1_K1-17" edge="1">
          <mxGeometry relative="1" as="geometry">
            <Array as="points">
              <mxPoint x="270" y="210" />
              <mxPoint x="270" y="169" />
            </Array>
          </mxGeometry>
        </mxCell>
        <mxCell id="rBdYq_oIjn1MwsfL1_K1-7" value="" style="pointerEvents=1;shadow=0;dashed=0;html=1;strokeColor=none;labelPosition=center;verticalLabelPosition=bottom;verticalAlign=top;align=center;fillColor=#505050;shape=mxgraph.mscae.intune.device_group" parent="1" vertex="1">
          <mxGeometry x="180" y="185" width="50" height="50" as="geometry" />
        </mxCell>
        <mxCell id="rBdYq_oIjn1MwsfL1_K1-24" style="edgeStyle=orthogonalEdgeStyle;rounded=0;orthogonalLoop=1;jettySize=auto;html=1;entryX=0.5;entryY=0.025;entryDx=0;entryDy=0;entryPerimeter=0;exitX=0.25;exitY=1;exitDx=0;exitDy=0;" parent="1" source="rBdYq_oIjn1MwsfL1_K1-17" target="adxDhfFW_FiVXPLlAAET-48" edge="1">
          <mxGeometry relative="1" as="geometry">
            <mxPoint x="269.75" y="510" as="targetPoint" />
            <Array as="points">
              <mxPoint x="370" y="443" />
            </Array>
          </mxGeometry>
        </mxCell>
        <mxCell id="rBdYq_oIjn1MwsfL1_K1-38" style="edgeStyle=orthogonalEdgeStyle;rounded=0;orthogonalLoop=1;jettySize=auto;html=1;exitX=0.617;exitY=1.004;exitDx=0;exitDy=0;entryX=0;entryY=0.5;entryDx=0;entryDy=0;entryPerimeter=0;exitPerimeter=0;" parent="1" source="rBdYq_oIjn1MwsfL1_K1-17" target="rBdYq_oIjn1MwsfL1_K1-37" edge="1">
          <mxGeometry relative="1" as="geometry">
            <Array as="points">
              <mxPoint x="414" y="389" />
            </Array>
          </mxGeometry>
        </mxCell>
        <mxCell id="rBdYq_oIjn1MwsfL1_K1-8" value="" style="rounded=1;arcSize=10;dashed=1;fillColor=none;gradientColor=none;dashPattern=1 1;strokeWidth=2;" parent="1" vertex="1">
          <mxGeometry x="310" y="40.25" width="490" height="280" as="geometry" />
        </mxCell>
        <mxCell id="rBdYq_oIjn1MwsfL1_K1-13" value="" style="aspect=fixed;html=1;points=[];align=center;image;fontSize=12;image=img/lib/azure2/containers/App_Services.svg;" parent="1" vertex="1">
          <mxGeometry x="360" y="80" width="70" height="70" as="geometry" />
        </mxCell>
        <mxCell id="rBdYq_oIjn1MwsfL1_K1-14" value="" style="verticalLabelPosition=bottom;html=1;verticalAlign=top;align=center;strokeColor=none;fillColor=#00BEF2;shape=mxgraph.azure.cloud;" parent="1" vertex="1">
          <mxGeometry x="330" y="7.5" width="50" height="32.5" as="geometry" />
        </mxCell>
        <mxCell id="rBdYq_oIjn1MwsfL1_K1-15" value="" style="aspect=fixed;html=1;points=[];align=center;image;fontSize=12;image=img/lib/mscae/Azure_Database_for_MySQL_servers.svg;" parent="1" vertex="1">
          <mxGeometry x="681" y="90" width="38" height="50" as="geometry" />
        </mxCell>
        <mxCell id="rBdYq_oIjn1MwsfL1_K1-17" value="" style="rounded=1;arcSize=10;dashed=1;strokeColor=#F59D56;fillColor=none;gradientColor=none;dashPattern=8 4;strokeWidth=2;" parent="1" vertex="1">
          <mxGeometry x="340" y="60.25" width="120" height="239.75" as="geometry" />
        </mxCell>
        <mxCell id="rBdYq_oIjn1MwsfL1_K1-18" value="" style="rounded=1;arcSize=10;dashed=1;strokeColor=#F59D56;fillColor=none;gradientColor=none;dashPattern=8 4;strokeWidth=2;" parent="1" vertex="1">
          <mxGeometry x="640" y="60" width="120" height="239.75" as="geometry" />
        </mxCell>
        <mxCell id="rBdYq_oIjn1MwsfL1_K1-19" style="edgeStyle=orthogonalEdgeStyle;rounded=0;orthogonalLoop=1;jettySize=auto;html=1;exitX=0.5;exitY=1;exitDx=0;exitDy=0;" parent="1" source="rBdYq_oIjn1MwsfL1_K1-8" target="rBdYq_oIjn1MwsfL1_K1-8" edge="1">
          <mxGeometry relative="1" as="geometry" />
        </mxCell>
        <mxCell id="rBdYq_oIjn1MwsfL1_K1-26" value="MySql" style="text;html=1;strokeColor=none;fillColor=none;align=center;verticalAlign=middle;whiteSpace=wrap;rounded=0;" parent="1" vertex="1">
          <mxGeometry x="640" y="40" width="40" height="20" as="geometry" />
        </mxCell>
        <mxCell id="adxDhfFW_FiVXPLlAAET-47" style="edgeStyle=orthogonalEdgeStyle;rounded=0;orthogonalLoop=1;jettySize=auto;html=1;entryX=0;entryY=0.474;entryDx=0;entryDy=0;entryPerimeter=0;" edge="1" parent="1" source="rBdYq_oIjn1MwsfL1_K1-37" target="adxDhfFW_FiVXPLlAAET-33">
          <mxGeometry relative="1" as="geometry" />
        </mxCell>
        <mxCell id="rBdYq_oIjn1MwsfL1_K1-37" value="" style="points=[[0,0,0],[0.25,0,0],[0.5,0,0],[0.75,0,0],[1,0,0],[0,1,0],[0.25,1,0],[0.5,1,0],[0.75,1,0],[1,1,0],[0,0.25,0],[0,0.5,0],[0,0.75,0],[1,0.25,0],[1,0.5,0],[1,0.75,0]];outlineConnect=0;fontColor=#232F3E;gradientColor=#945DF2;gradientDirection=north;fillColor=#5A30B5;strokeColor=#ffffff;dashed=0;verticalLabelPosition=bottom;verticalAlign=top;align=center;html=1;fontSize=12;fontStyle=0;aspect=fixed;shape=mxgraph.aws4.resourceIcon;resIcon=mxgraph.aws4.client_vpn;" parent="1" vertex="1">
          <mxGeometry x="630" y="350" width="78" height="78" as="geometry" />
        </mxCell>
        <mxCell id="adxDhfFW_FiVXPLlAAET-1" value="App Service" style="text;html=1;strokeColor=none;fillColor=none;align=center;verticalAlign=middle;whiteSpace=wrap;rounded=0;" vertex="1" parent="1">
          <mxGeometry x="354.5" y="40.25" width="75" height="20" as="geometry" />
        </mxCell>
        <mxCell id="adxDhfFW_FiVXPLlAAET-3" value="" style="endArrow=classic;startArrow=classic;html=1;entryX=0;entryY=0.25;entryDx=0;entryDy=0;exitX=1;exitY=0.25;exitDx=0;exitDy=0;" edge="1" parent="1" source="rBdYq_oIjn1MwsfL1_K1-17" target="rBdYq_oIjn1MwsfL1_K1-18">
          <mxGeometry width="50" height="50" relative="1" as="geometry">
            <mxPoint x="400" y="230" as="sourcePoint" />
            <mxPoint x="450" y="180" as="targetPoint" />
          </mxGeometry>
        </mxCell>
        <mxCell id="adxDhfFW_FiVXPLlAAET-6" value="" style="shape=image;html=1;verticalAlign=top;verticalLabelPosition=bottom;labelBackgroundColor=#ffffff;imageAspect=0;aspect=fixed;image=https://cdn2.iconfinder.com/data/icons/amazon-aws-stencils/100/SDKs_copy_nodeJS-128.png" vertex="1" parent="1">
          <mxGeometry x="400" y="110" width="40" height="40" as="geometry" />
        </mxCell>
        <mxCell id="adxDhfFW_FiVXPLlAAET-9" value="" style="rounded=1;arcSize=10;dashed=1;strokeColor=#ff0000;fillColor=none;gradientColor=none;dashPattern=8 4;strokeWidth=2;" vertex="1" parent="1">
          <mxGeometry x="327.38" y="69.87" width="450" height="220" as="geometry" />
        </mxCell>
        <mxCell id="adxDhfFW_FiVXPLlAAET-10" value="Desarrollo" style="text;html=1;strokeColor=none;fillColor=none;align=center;verticalAlign=middle;whiteSpace=wrap;rounded=0;" vertex="1" parent="1">
          <mxGeometry x="499.25" y="50" width="50" height="20" as="geometry" />
        </mxCell>
        <mxCell id="adxDhfFW_FiVXPLlAAET-13" value="" style="aspect=fixed;html=1;points=[];align=center;image;fontSize=12;image=img/lib/azure2/containers/App_Services.svg;" vertex="1" parent="1">
          <mxGeometry x="365.5" y="210" width="64" height="64" as="geometry" />
        </mxCell>
        <mxCell id="adxDhfFW_FiVXPLlAAET-14" value="" style="shape=image;html=1;verticalAlign=top;verticalLabelPosition=bottom;labelBackgroundColor=#ffffff;imageAspect=0;aspect=fixed;image=https://cdn3.iconfinder.com/data/icons/logos-3/250/angular-128.png" vertex="1" parent="1">
          <mxGeometry x="405.38" y="250" width="29.25" height="29.25" as="geometry" />
        </mxCell>
        <mxCell id="adxDhfFW_FiVXPLlAAET-15" value="" style="endArrow=classic;startArrow=classic;html=1;" edge="1" parent="1">
          <mxGeometry width="50" height="50" relative="1" as="geometry">
            <mxPoint x="395" y="210" as="sourcePoint" />
            <mxPoint x="395" y="150" as="targetPoint" />
            <Array as="points">
              <mxPoint x="395" y="190" />
            </Array>
          </mxGeometry>
        </mxCell>
        <mxCell id="adxDhfFW_FiVXPLlAAET-16" value="" style="rounded=1;arcSize=10;dashed=0;fillColor=none;gradientColor=none;strokeWidth=2;" vertex="1" parent="1">
          <mxGeometry x="198.25" y="550" width="680" height="510" as="geometry" />
        </mxCell>
        <mxCell id="adxDhfFW_FiVXPLlAAET-17" value="" style="dashed=0;html=1;shape=mxgraph.aws3.virtual_private_cloud;fillColor=#F58536;gradientColor=none;dashed=0;" vertex="1" parent="1">
          <mxGeometry x="220" y="514" width="52" height="36" as="geometry" />
        </mxCell>
        <mxCell id="adxDhfFW_FiVXPLlAAET-18" value="Private subnet" style="points=[[0,0],[0.25,0],[0.5,0],[0.75,0],[1,0],[1,0.25],[1,0.5],[1,0.75],[1,1],[0.75,1],[0.5,1],[0.25,1],[0,1],[0,0.75],[0,0.5],[0,0.25]];outlineConnect=0;gradientColor=none;html=1;whiteSpace=wrap;fontSize=12;fontStyle=0;shape=mxgraph.aws4.group;grIcon=mxgraph.aws4.group_security_group;grStroke=0;strokeColor=#147EBA;fillColor=#E6F2F8;verticalAlign=top;align=left;spacingLeft=30;fontColor=#147EBA;dashed=0;" vertex="1" parent="1">
          <mxGeometry x="230" y="580" width="610" height="460" as="geometry" />
        </mxCell>
        <mxCell id="adxDhfFW_FiVXPLlAAET-19" value="" style="outlineConnect=0;dashed=0;verticalLabelPosition=bottom;verticalAlign=top;align=center;html=1;shape=mxgraph.aws3.ec2;fillColor=#F58534;gradientColor=none;" vertex="1" parent="1">
          <mxGeometry x="260" y="895" width="76.5" height="93" as="geometry" />
        </mxCell>
        <mxCell id="adxDhfFW_FiVXPLlAAET-20" value="panel.heb.com.mx" style="text;html=1;strokeColor=none;fillColor=none;align=center;verticalAlign=middle;whiteSpace=wrap;rounded=0;" vertex="1" parent="1">
          <mxGeometry x="250" y="1005" width="84" height="20" as="geometry" />
        </mxCell>
        <mxCell id="adxDhfFW_FiVXPLlAAET-21" value="PRODUCCION" style="text;html=1;strokeColor=none;fillColor=none;align=center;verticalAlign=middle;whiteSpace=wrap;rounded=0;" vertex="1" parent="1">
          <mxGeometry x="272" y="530" width="88" height="20" as="geometry" />
        </mxCell>
        <mxCell id="adxDhfFW_FiVXPLlAAET-22" value="" style="rounded=1;arcSize=10;dashed=1;strokeColor=#ff0000;fillColor=none;gradientColor=none;dashPattern=8 4;strokeWidth=2;" vertex="1" parent="1">
          <mxGeometry x="220" y="845" width="150" height="160" as="geometry" />
        </mxCell>
        <mxCell id="adxDhfFW_FiVXPLlAAET-23" value="" style="outlineConnect=0;dashed=0;verticalLabelPosition=bottom;verticalAlign=top;align=center;html=1;shape=mxgraph.aws3.ec2;fillColor=#F58534;gradientColor=none;" vertex="1" parent="1">
          <mxGeometry x="740" y="900" width="76.5" height="93" as="geometry" />
        </mxCell>
        <mxCell id="adxDhfFW_FiVXPLlAAET-24" value="mobile.hebdigital.net" style="text;html=1;strokeColor=none;fillColor=none;align=center;verticalAlign=middle;whiteSpace=wrap;rounded=0;" vertex="1" parent="1">
          <mxGeometry x="717.3800000000001" y="1005" width="110.25" height="20" as="geometry" />
        </mxCell>
        <mxCell id="adxDhfFW_FiVXPLlAAET-25" value="" style="rounded=1;arcSize=10;dashed=1;strokeColor=#ff0000;fillColor=none;gradientColor=none;dashPattern=8 4;strokeWidth=2;" vertex="1" parent="1">
          <mxGeometry x="700" y="850" width="150" height="160" as="geometry" />
        </mxCell>
        <mxCell id="adxDhfFW_FiVXPLlAAET-26" value="" style="outlineConnect=0;dashed=0;verticalLabelPosition=bottom;verticalAlign=top;align=center;html=1;shape=mxgraph.aws3.ec2;fillColor=#F58534;gradientColor=none;" vertex="1" parent="1">
          <mxGeometry x="500" y="900" width="76.5" height="93" as="geometry" />
        </mxCell>
        <mxCell id="adxDhfFW_FiVXPLlAAET-27" value="heb.com.mx" style="text;html=1;strokeColor=none;fillColor=none;align=center;verticalAlign=middle;whiteSpace=wrap;rounded=0;" vertex="1" parent="1">
          <mxGeometry x="494.75" y="1005" width="84" height="20" as="geometry" />
        </mxCell>
        <mxCell id="adxDhfFW_FiVXPLlAAET-28" value="" style="rounded=1;arcSize=10;dashed=1;strokeColor=#ff0000;fillColor=none;gradientColor=none;dashPattern=8 4;strokeWidth=2;" vertex="1" parent="1">
          <mxGeometry x="460" y="850" width="150" height="160" as="geometry" />
        </mxCell>
        <mxCell id="adxDhfFW_FiVXPLlAAET-29" value="" style="rounded=1;arcSize=10;dashed=1;strokeColor=#ff0000;fillColor=none;gradientColor=none;dashPattern=8 4;strokeWidth=2;" vertex="1" parent="1">
          <mxGeometry x="461.75" y="600" width="150" height="160" as="geometry" />
        </mxCell>
        <mxCell id="adxDhfFW_FiVXPLlAAET-32" value="" style="points=[[0,0,0],[0.25,0,0],[0.5,0,0],[0.75,0,0],[1,0,0],[0,1,0],[0.25,1,0],[0.5,1,0],[0.75,1,0],[1,1,0],[0,0.25,0],[0,0.5,0],[0,0.75,0],[1,0.25,0],[1,0.5,0],[1,0.75,0]];outlineConnect=0;fontColor=#232F3E;gradientColor=#4D72F3;gradientDirection=north;fillColor=#3334B9;strokeColor=#ffffff;dashed=0;verticalLabelPosition=bottom;verticalAlign=top;align=center;html=1;fontSize=12;fontStyle=0;aspect=fixed;shape=mxgraph.aws4.resourceIcon;resIcon=mxgraph.aws4.aurora;" vertex="1" parent="1">
          <mxGeometry x="497.75" y="640" width="78" height="78" as="geometry" />
        </mxCell>
        <mxCell id="adxDhfFW_FiVXPLlAAET-33" value="" style="rounded=1;arcSize=10;dashed=1;fillColor=none;gradientColor=none;dashPattern=1 1;strokeWidth=2;" vertex="1" parent="1">
          <mxGeometry x="1000" y="94" width="410" height="320" as="geometry" />
        </mxCell>
        <mxCell id="adxDhfFW_FiVXPLlAAET-34" value="SRD201080" style="text;html=1;strokeColor=none;fillColor=none;align=center;verticalAlign=middle;whiteSpace=wrap;rounded=0;" vertex="1" parent="1">
          <mxGeometry x="1266" y="361" width="92.5" height="20" as="geometry" />
        </mxCell>
        <mxCell id="adxDhfFW_FiVXPLlAAET-35" value="" style="aspect=fixed;html=1;points=[];align=center;image;fontSize=12;image=img/lib/azure2/databases/SQL_Server.svg;" vertex="1" parent="1">
          <mxGeometry x="1061.5" y="292" width="68" height="68" as="geometry" />
        </mxCell>
        <mxCell id="adxDhfFW_FiVXPLlAAET-36" value="SRD201050" style="text;html=1;strokeColor=none;fillColor=none;align=center;verticalAlign=middle;whiteSpace=wrap;rounded=0;" vertex="1" parent="1">
          <mxGeometry x="1049.25" y="361" width="92.5" height="20" as="geometry" />
        </mxCell>
        <mxCell id="adxDhfFW_FiVXPLlAAET-37" value="" style="aspect=fixed;html=1;points=[];align=center;image;fontSize=12;image=img/lib/azure2/databases/SQL_Server.svg;" vertex="1" parent="1">
          <mxGeometry x="1278.25" y="292" width="68" height="68" as="geometry" />
        </mxCell>
        <mxCell id="adxDhfFW_FiVXPLlAAET-38" value="SRD2011155" style="text;html=1;strokeColor=none;fillColor=none;align=center;verticalAlign=middle;whiteSpace=wrap;rounded=0;" vertex="1" parent="1">
          <mxGeometry x="1266" y="197" width="92.5" height="20" as="geometry" />
        </mxCell>
        <mxCell id="adxDhfFW_FiVXPLlAAET-39" value="" style="aspect=fixed;html=1;points=[];align=center;image;fontSize=12;image=img/lib/azure2/databases/SQL_Server.svg;" vertex="1" parent="1">
          <mxGeometry x="1278.25" y="120.25" width="68" height="68" as="geometry" />
        </mxCell>
        <mxCell id="adxDhfFW_FiVXPLlAAET-40" value="SRD2010107" style="text;html=1;strokeColor=none;fillColor=none;align=center;verticalAlign=middle;whiteSpace=wrap;rounded=0;" vertex="1" parent="1">
          <mxGeometry x="1046.25" y="187" width="92.5" height="20" as="geometry" />
        </mxCell>
        <mxCell id="adxDhfFW_FiVXPLlAAET-41" value="" style="aspect=fixed;html=1;points=[];align=center;image;fontSize=12;image=img/lib/azure2/databases/SQL_Server.svg;" vertex="1" parent="1">
          <mxGeometry x="1061.5" y="113" width="68" height="68" as="geometry" />
        </mxCell>
        <mxCell id="adxDhfFW_FiVXPLlAAET-45" value="On-Premise" style="sketch=0;outlineConnect=0;gradientColor=none;html=1;whiteSpace=wrap;fontSize=12;fontStyle=0;shape=mxgraph.aws4.group;grIcon=mxgraph.aws4.group_on_premise;strokeColor=#858B94;fillColor=none;verticalAlign=top;align=left;spacingLeft=30;fontColor=#858B94;dashed=0;" vertex="1" parent="1">
          <mxGeometry x="920" y="40" width="560" height="450" as="geometry" />
        </mxCell>
        <mxCell id="adxDhfFW_FiVXPLlAAET-69" style="edgeStyle=orthogonalEdgeStyle;rounded=0;orthogonalLoop=1;jettySize=auto;html=1;" edge="1" parent="1" source="adxDhfFW_FiVXPLlAAET-48" target="adxDhfFW_FiVXPLlAAET-68">
          <mxGeometry relative="1" as="geometry" />
        </mxCell>
        <mxCell id="adxDhfFW_FiVXPLlAAET-48" value="" style="outlineConnect=0;dashed=0;verticalLabelPosition=bottom;verticalAlign=top;align=center;html=1;shape=mxgraph.aws3.vpn_connection;fillColor=#F58534;gradientColor=none;strokeColor=#29F51B;" vertex="1" parent="1">
          <mxGeometry x="341.5" y="442" width="58.5" height="48" as="geometry" />
        </mxCell>
        <mxCell id="adxDhfFW_FiVXPLlAAET-49" value="Security Group" style="fontStyle=0;verticalAlign=top;align=center;spacingTop=-2;fillColor=none;rounded=0;whiteSpace=wrap;html=1;strokeColor=#FF0000;strokeWidth=2;dashed=1;container=1;collapsible=0;expand=0;recursiveResize=0;" vertex="1" parent="1">
          <mxGeometry x="180" y="830" width="710" height="200" as="geometry" />
        </mxCell>
        <mxCell id="adxDhfFW_FiVXPLlAAET-68" value="Security Group" style="fontStyle=0;verticalAlign=top;align=center;spacingTop=-2;fillColor=none;rounded=0;whiteSpace=wrap;html=1;strokeColor=#FF0000;strokeWidth=2;dashed=1;container=1;collapsible=0;expand=0;recursiveResize=0;" vertex="1" parent="1">
          <mxGeometry x="180" y="570" width="710" height="200" as="geometry" />
        </mxCell>
        <mxCell id="adxDhfFW_FiVXPLlAAET-71" value="" style="rounded=1;arcSize=10;dashed=0;fillColor=none;gradientColor=none;strokeWidth=2;" vertex="1" parent="adxDhfFW_FiVXPLlAAET-68">
          <mxGeometry x="-60" y="-56" width="870" height="596" as="geometry" />
        </mxCell>
        <mxCell id="adxDhfFW_FiVXPLlAAET-72" value="" style="outlineConnect=0;dashed=0;verticalLabelPosition=bottom;verticalAlign=top;align=center;html=1;shape=mxgraph.aws3.cloud_2;fillColor=#F58534;gradientColor=none;strokeColor=#29F51B;" vertex="1" parent="adxDhfFW_FiVXPLlAAET-68">
          <mxGeometry x="-80" y="-95" width="75" height="75" as="geometry" />
        </mxCell>
        <mxCell id="adxDhfFW_FiVXPLlAAET-70" value="" style="endArrow=classic;startArrow=classic;html=1;exitX=0.5;exitY=1;exitDx=0;exitDy=0;" edge="1" parent="1" source="adxDhfFW_FiVXPLlAAET-68">
          <mxGeometry width="50" height="50" relative="1" as="geometry">
            <mxPoint x="490" y="910" as="sourcePoint" />
            <mxPoint x="535" y="830" as="targetPoint" />
          </mxGeometry>
        </mxCell>
      </root>
    </mxGraphModel>
  </diagram>
</mxfile>
